HIERARCHY
ROOT root
{
	OFFSET 0.000000 0.000000 0.000000
	CHANNELS 6 Xposition Yposition Zposition Zrotation Yrotation Xrotation
	JOINT lhip
	{
		OFFSET 0.058581 -0.082280 -0.017664
		CHANNELS 3 Zrotation Yrotation Xrotation
		JOINT lknee
		{
			OFFSET 0.043451 -0.386469 0.008037
			CHANNELS 3 Zrotation Yrotation Xrotation
			JOINT lankle
			{
				OFFSET -0.014790 -0.426874 -0.037428
				CHANNELS 3 Zrotation Yrotation Xrotation
				JOINT ltoe
				{
					OFFSET 0.041054 -0.060286 0.122042
					CHANNELS 3 Zrotation Yrotation Xrotation
					End Site
					{
						OFFSET 0.000000 0.000000 0.000000
					}
				}
			}
		}
	}
	JOINT rhip
	{
		OFFSET -0.060310 -0.090513 -0.013543
		CHANNELS 3 Zrotation Yrotation Xrotation
		JOINT rknee
		{
			OFFSET -0.043257 -0.383688 -0.004843
			CHANNELS 3 Zrotation Yrotation Xrotation
			JOINT rankle
			{
				OFFSET 0.019056 -0.420046 -0.034562
				CHANNELS 3 Zrotation Yrotation Xrotation
				JOINT rtoe
				{
					OFFSET -0.034840 -0.062106 0.130323
					CHANNELS 3 Zrotation Yrotation Xrotation
					End Site
					{
						OFFSET 0.000000 0.000000 0.000000
					}
				}
			}
		}
	}
	JOINT lowerback
	{
		OFFSET 0.004439 0.124404 -0.038385
		CHANNELS 3 Zrotation Yrotation Xrotation
		JOINT upperback
		{
			OFFSET 0.004488 0.137956 0.026820
			CHANNELS 3 Zrotation Yrotation Xrotation
			JOINT chest
			{
				OFFSET -0.002265 0.056032 0.002855
				CHANNELS 3 Zrotation Yrotation Xrotation
				JOINT lowerneck
				{
					OFFSET -0.013390 0.211636 -0.033468
					CHANNELS 3 Zrotation Yrotation Xrotation
					JOINT upperneck
					{
						OFFSET 0.010113 0.088937 0.050410
						CHANNELS 3 Zrotation Yrotation Xrotation
						End Site
						{
							OFFSET 0.000000 0.000000 0.000000
						}
					}
				}
				JOINT lclavicle
				{
					OFFSET 0.071702 0.114000 -0.018898
					CHANNELS 3 Zrotation Yrotation Xrotation
					JOINT lshoulder
					{
						OFFSET 0.122921 0.045205 -0.019046
						CHANNELS 3 Zrotation Yrotation Xrotation
						JOINT lelbow
						{
							OFFSET 0.255332 -0.015649 -0.022946
							CHANNELS 3 Zrotation Yrotation Xrotation
							JOINT lwrist
							{
								OFFSET 0.265709 0.012698 -0.007375
								CHANNELS 3 Zrotation Yrotation Xrotation
								End Site
								{
									OFFSET 0.000000 0.000000 0.000000
								}
							}
						}
					}
				}
				JOINT rclavicle
				{
					OFFSET -0.082954 0.112472 -0.023707
					CHANNELS 3 Zrotation Yrotation Xrotation
					JOINT rshoulder
					{
						OFFSET -0.113228 0.046853 -0.008472
						CHANNELS 3 Zrotation Yrotation Xrotation
						JOINT relbow
						{
							OFFSET -0.260127 -0.014369 -0.031269
							CHANNELS 3 Zrotation Yrotation Xrotation
							JOINT rwrist
							{
								OFFSET -0.269108 0.006794 -0.006027
								CHANNELS 3 Zrotation Yrotation Xrotation
								End Site
								{
									OFFSET 0.000000 0.000000 0.000000
								}
							}
						}
					}
				}
			}
		}
	}
}
MOTION
Frames: 11
Frame Time: 0.033333
-2.131685 0.610548 1.007742 102.602591 -1.897743 92.466027 -3.028922 -3.040921 -2.140771 1.382412 -10.692073 1.962498 0.210065 8.010023 -9.723150 0.000000 -0.000000 0.000000 4.668299 -5.584705 -0.147055 -5.973230 -11.149758 1.524533 2.132034 -18.447173 -10.250406 0.000000 -0.000000 0.000000 -3.106284 4.958866 9.227075 -2.033282 -0.956962 -3.245516 -0.728195 0.722291 2.883893 3.189606 -4.543848 -5.191908 6.493495 -12.403736 -3.046115 -20.537114 0.816853 0.657136 -48.286194 -6.082236 11.687210 -7.410813 -14.275910 23.349291 -7.872946 -4.770266 3.091804 20.800333 1.906046 0.329178 57.613924 -3.421770 19.054861 1.434424 24.598847 26.302350 7.350928 -1.925955 7.365355 
-2.135053 0.613382 1.007507 102.872276 -1.762083 92.435808 -2.732387 -3.344284 -2.729118 0.853952 -10.814212 2.816735 -0.162306 7.781882 -10.625573 0.000000 -0.000000 0.000000 4.702507 -6.021712 -0.193897 -6.055865 -10.682711 1.163749 1.854022 -18.404272 -10.775603 0.000000 -0.000000 0.000000 -3.133001 5.342282 9.056951 -1.963715 -0.714453 -3.026532 -0.644082 0.904200 3.311599 3.762502 -4.843162 -5.367138 6.303374 -13.017071 -3.034498 -20.256238 3.041490 0.603303 -48.741860 -4.402601 11.595678 -8.694625 -16.223016 22.844275 -6.102020 -4.878318 -0.309177 21.079222 1.398011 -0.226529 57.234603 -1.806324 18.958493 1.330186 25.769116 23.961332 5.532881 -1.292847 6.251725 
-2.138055 0.616484 1.004785 102.945391 -1.793243 92.211161 -3.011135 -3.467168 -2.856727 0.826794 -10.351056 3.143486 -0.089438 7.871523 -11.254095 0.000000 -0.000000 0.000000 4.609288 -6.139234 -0.405855 -6.322971 -10.614561 1.608638 1.306090 -18.656053 -11.674474 0.000000 -0.000000 0.000000 -3.185524 5.576558 9.365719 -1.879377 -0.534573 -2.796879 -0.607732 0.728462 3.588390 4.064517 -4.649091 -6.137401 5.584341 -13.310486 -2.659199 -20.278172 4.314038 0.874626 -49.445577 -2.912729 11.573750 -9.221993 -17.007082 23.004434 -6.075613 -5.005782 -1.948030 21.478774 1.325701 -0.672360 57.552373 -0.124497 18.759337 -0.369077 26.063448 21.017372 4.135759 -1.093376 6.134419 
-2.140180 0.620289 1.003271 102.727450 -1.893779 91.903746 -3.570054 -3.175494 -2.283549 1.091787 -10.415930 2.617835 -0.194743 7.952014 -12.016360 0.000000 -0.000000 0.000000 4.156101 -5.541025 -0.698426 -6.376440 -10.873967 2.640998 0.977300 -19.022749 -12.355214 0.000000 -0.000000 0.000000 -2.963389 5.202859 9.974841 -2.105209 -0.391228 -2.827308 -0.805340 0.802810 3.439721 4.077974 -4.245317 -6.568419 5.103225 -13.136727 -2.075592 -21.175516 4.437254 1.396452 -49.814429 -1.382562 11.314433 -8.085393 -15.978379 22.710587 -6.090140 -5.610669 -0.995867 22.199959 2.016620 -0.806098 57.847255 0.946081 18.523144 -1.777358 25.657365 19.081564 3.486398 -0.912995 6.150917 
-2.141040 0.623743 1.003086 102.158373 -1.649815 91.664615 -3.416907 -2.438076 -1.627599 0.954277 -10.569014 2.111126 -0.465333 7.651394 -12.832703 0.000000 -0.000000 0.000000 4.095710 -4.906979 -0.838464 -6.445625 -10.925679 3.338143 0.964291 -18.992563 -12.421439 0.000000 -0.000000 0.000000 -2.613093 4.989108 9.988410 -2.258778 0.010132 -2.624798 -0.897387 0.929416 3.272290 4.154511 -4.202462 -6.305610 4.741194 -12.787575 -1.736745 -22.076350 4.322303 1.850941 -50.865181 -0.699341 10.746172 -6.025617 -14.297844 21.175237 -5.912514 -5.601934 -0.552894 22.667162 2.364964 -0.670000 58.329935 1.781690 18.267641 -2.450538 25.444589 18.211649 3.002958 -0.383872 5.930813 
-2.141467 0.627300 1.003661 102.263245 -1.427249 91.580328 -3.475748 -2.231379 -1.341390 1.024148 -10.359045 1.901044 -0.491734 7.820305 -13.859144 0.000000 -0.000000 0.000000 4.201416 -4.888273 -0.714631 -6.619119 -11.117235 3.301146 0.779508 -19.174110 -12.432414 0.000000 -0.000000 0.000000 -2.267986 4.762866 10.026449 -2.372145 0.053577 -2.908425 -0.840600 0.854476 3.460411 4.203075 -4.367119 -6.264302 4.615589 -12.452497 -1.460146 -22.371539 5.093456 1.656737 -52.412185 -0.576452 10.246204 -4.879169 -14.476510 19.945832 -5.371907 -5.146287 -1.512526 22.676623 2.138057 -0.793766 58.887065 2.245455 18.407203 -2.244653 25.986758 18.259523 2.497832 -0.229769 5.827099 
-2.141092 0.630505 1.003640 102.715294 -1.267802 91.580928 -3.706912 -2.293957 -1.603174 1.335210 -8.826031 2.700166 0.467662 9.133424 -15.245963 0.000000 -0.000000 0.000000 4.287070 -5.425126 -0.219750 -6.743583 -11.331961 2.405749 0.661619 -19.023143 -12.099732 0.000000 -0.000000 0.000000 -2.171148 4.728274 10.121725 -2.387626 -0.276729 -3.271910 -0.627778 0.589394 3.507878 4.289546 -4.852285 -6.297526 4.818408 -12.060168 -1.065880 -22.311727 5.575134 1.784409 -53.812774 -0.965915 9.901780 -4.835702 -15.917488 18.022756 -4.892085 -5.091940 -4.482329 22.454976 2.017119 -0.807606 59.361471 2.411261 18.890859 -1.937575 26.668946 18.541784 2.655916 -0.175977 5.695055 
-2.139605 0.634064 1.002404 102.880265 -1.074794 91.873888 -3.739059 -1.919793 -2.114179 1.876933 -5.628423 3.536981 2.585383 11.140381 -16.209214 0.000000 -0.000000 0.000000 4.232016 -5.788607 -0.172438 -6.635024 -11.357163 2.011073 0.552327 -18.775171 -11.782078 0.000000 -0.000000 0.000000 -2.231478 4.956405 9.527878 -2.236883 -0.330541 -3.170936 -0.275231 0.193902 3.662556 4.235609 -5.062413 -6.846307 4.899718 -11.762865 -0.672319 -21.986478 4.961498 2.031577 -55.319592 -1.846726 10.141811 -4.611158 -16.219117 17.731664 -4.156122 -4.785785 -5.746698 22.300239 1.954133 -0.875240 59.569352 2.845504 18.868060 -1.818780 26.838354 18.311313 2.104620 0.076295 5.724919 
-2.137862 0.637707 1.001553 102.755461 -0.958258 91.974614 -3.683068 -1.135595 -1.870737 1.991499 -4.587330 3.252972 2.735737 11.416629 -15.842540 0.000000 -0.000000 0.000000 4.082785 -5.737250 -0.284890 -6.714621 -11.512764 2.366798 0.638384 -18.498545 -11.794869 0.000000 -0.000000 0.000000 -2.275307 4.653133 9.799769 -2.127827 -0.533000 -3.419408 -0.200712 0.159686 3.303846 4.290640 -4.905701 -7.363539 4.752300 -11.508202 0.011098 -22.142593 3.918928 2.088160 -55.484676 -2.307012 10.434731 -4.081697 -16.014528 18.210320 -3.938939 -5.429751 -4.573706 22.463277 2.598953 -0.720366 59.583309 3.111829 19.011497 -2.152051 26.928630 18.399486 2.644858 0.586926 6.277976 
-2.135498 0.642016 1.000886 102.584149 -0.773577 91.887424 -3.977380 -0.863583 -1.570915 2.142425 -5.105142 3.051939 3.506160 11.171909 -13.667556 0.000000 -0.000000 0.000000 4.049959 -5.333035 -0.026209 -6.846132 -11.317528 2.489768 0.282527 -18.839610 -11.511345 0.000000 -0.000000 0.000000 -2.124673 4.345758 9.827822 -2.062690 -0.678136 -3.403759 -0.222474 0.094170 3.229591 4.172454 -4.836038 -7.440624 4.867395 -11.073210 0.176631 -22.419319 2.523705 2.396744 -55.004308 -2.958588 10.717059 -3.492864 -15.588499 18.323609 -2.483679 -5.348629 -3.854351 22.379519 3.454682 -0.568669 59.682618 3.493808 19.141866 -2.291665 27.011118 18.143859 1.343344 0.776474 5.888785 
-2.131933 0.646963 1.000436 102.058708 -0.697491 91.596448 -4.466382 -0.889753 -0.845792 2.463444 -4.831820 2.851640 3.679813 11.555296 -13.290867 0.000000 -0.000000 0.000000 3.915888 -5.149308 0.683575 -7.098009 -11.163012 2.271783 0.322134 -18.875884 -11.136626 0.000000 -0.000000 0.000000 -2.045425 4.165418 10.031448 -2.100734 -0.885428 -3.335291 -0.261072 0.169685 3.076522 4.138071 -4.441147 -7.363978 4.810067 -10.791687 0.573182 -22.247630 1.949917 2.313948 -54.481053 -3.129633 10.573870 -3.511504 -15.992895 18.195791 -1.660122 -5.456231 -3.133259 22.361284 4.133411 -0.650310 59.789801 4.082138 19.246478 -2.512340 27.290748 17.633598 0.042875 1.227916 6.320108 
